<?xml version="1.0" encoding="utf-8"?>
<!-- Generator: Adobe Illustrator 12.0.0, SVG Export Plug-In . SVG Version: 6.00 Build 51448)  -->
<!DOCTYPE svg PUBLIC "-//W3C//DTD SVG 1.1//EN" "http://www.w3.org/Graphics/SVG/1.1/DTD/svg11.dtd" [
	<!ENTITY ns_svg "http://www.w3.org/2000/svg">
	<!ENTITY ns_xlink "http://www.w3.org/1999/xlink">
]>
<svg  version="1.1" id="Calque_1" xmlns="&ns_svg;" xmlns:xlink="&ns_xlink;" width="599.45" height="485.188"
	 viewBox="0 0 599.45 485.188" overflow="visible" enable-background="new 0 0 599.45 485.188" xml:space="preserve">
<g>
	<rect fill="none" width="599.45" height="485.188"/>
	<g>
		<g>
			<path fill="#00427E" d="M58.576,414.022h9.511l4.628,28.337h-7.636l-0.771-6.053H53.297l-3.369,6.053h-8.206L58.576,414.022z
				 M62.356,419.855h-0.08l-6.013,11.084h7.313L62.356,419.855z"/>
			<path fill="#00427E" d="M85.753,414.022h19.946l-1.099,5.34H92.13l-1.296,5.852h11.819l-1.181,5.365H89.693l-1.379,6.42h12.956
				l-1.098,5.36H79.662L85.753,414.022z M95.662,406.166h7.599v0.897l-6.699,4.95h-4.798v-0.478L95.662,406.166z"/>
			<path fill="#00427E" d="M114.51,414.022h9.063c5.4,0.035,11.898,0.177,11.898,7.218c0,4.998-3.9,6.747-8.244,7.262v0.089
				c2.232,0.207,2.967,3.204,3.371,5.035l2.031,8.733h-7.557l-1.463-7.232c-0.73-3.696-0.971-3.976-4.383-3.976h-0.814
				l-2.279,11.208h-7.594L114.51,414.022z M119.51,425.778h2.559c3.289,0,5.848-0.807,5.848-3.478c0-2.042-1.221-2.892-3.49-2.938
				h-3.617L119.51,425.778z"/>
			<path fill="#00427E" d="M153.911,442.844c-9.219,0-12.59-5.722-12.59-11.529c0-10.762,5.646-17.797,16.574-17.797
				c9.219,0,12.594,5.724,12.594,11.571C170.489,435.817,164.84,442.844,153.911,442.844z M157.409,419.116
				c-5.85,0-8.289,6.788-8.289,11.585c0,3.574,1.342,6.538,5.283,6.538c5.85,0,8.283-6.78,8.283-11.536
				C162.686,422.135,161.348,419.116,157.409,419.116z"/>
			<path fill="#00427E" d="M180.963,414.022h7.557c6.217,0,12.473,0.641,12.473,7.78c0,7.075-5.77,10.644-12.592,10.644h-3.861
				l-2.117,9.913h-7.553L180.963,414.022z M185.676,427.085h2.031c3.008,0,5.73-1.06,5.73-4.432c0-2.724-1.867-3.292-3.9-3.292
				h-2.232L185.676,427.085z"/>
			<path fill="#00427E" d="M218.459,442.844c-9.221,0-12.594-5.722-12.594-11.529c0-10.762,5.648-17.797,16.574-17.797
				c9.217,0,12.592,5.724,12.592,11.571C235.032,435.817,229.383,442.844,218.459,442.844z M221.948,419.116
				c-5.846,0-8.281,6.788-8.281,11.585c0,3.574,1.338,6.538,5.277,6.538c5.85,0,8.285-6.78,8.285-11.536
				C227.229,422.135,225.893,419.116,221.948,419.116z"/>
			<path fill="#00427E" d="M245.874,414.022h9.061c5.402,0.035,11.904,0.177,11.904,7.218c0,4.998-3.904,6.747-8.246,7.262v0.089
				c2.232,0.207,2.961,3.204,3.373,5.035l2.029,8.733h-7.559l-1.459-7.232c-0.732-3.696-0.979-3.976-4.389-3.976h-0.813
				l-2.27,11.208h-7.602L245.874,414.022z M250.877,425.778h2.557c3.291,0,5.846-0.807,5.846-3.478c0-2.042-1.217-2.892-3.492-2.938
				h-3.613L250.877,425.778z"/>
			<path fill="#00427E" d="M280.961,419.62h-7.064l1.217-5.598h21.805l-1.215,5.598h-7.066l-4.832,22.739h-7.676L280.961,419.62z"/>
			<path fill="#00427E" d="M321.01,420.429c-1.461-0.684-3.455-1.313-6.256-1.313c-3.01,0-5.439,0.458-5.439,2.727
				c0,4.016,11.006,2.52,11.006,11.141c0,7.83-7.27,9.861-13.854,9.861c-2.922,0-6.295-0.69-8.771-1.461l1.781-5.77
				c1.508,0.974,4.516,1.625,6.99,1.625c2.359,0,6.055-0.45,6.055-3.369c0-4.554-11.008-2.84-11.008-10.842
				c0-7.311,6.418-9.51,12.633-9.51c3.492,0,6.777,0.37,8.693,1.271L321.01,420.429z"/>
			<path fill="#00427E" d="M346.069,414.022h9.838c9.018,0,14.461,3.806,14.461,11.362c0,11.854-7.434,16.975-18.08,16.975h-12.221
				L346.069,414.022z M348.92,436.748h3.33c7.436,0,10.318-5.553,10.318-10.844c0-5.195-3.572-6.284-8.209-6.284h-1.861
				L348.92,436.748z"/>
			<path fill="#00427E" d="M381.821,414.022h19.939l-1.098,5.34h-12.465l-1.301,5.852h11.816l-1.174,5.365h-11.781l-1.385,6.42
				h12.959l-1.098,5.36h-20.506L381.821,414.022z"/>
			<path fill="#00427E" d="M423.454,414.022h7.555c6.213,0,12.475,0.641,12.475,7.78c0,7.075-5.773,10.644-12.594,10.644h-3.863
				l-2.111,9.913h-7.555L423.454,414.022z M428.168,427.085h2.023c3.01,0,5.73-1.06,5.73-4.432c0-2.724-1.869-3.292-3.898-3.292
				h-2.234L428.168,427.085z"/>
			<path fill="#00427E" d="M458.305,414.022h9.504l4.635,28.337h-7.641l-0.77-6.053h-11.008l-3.373,6.053h-8.201L458.305,414.022z
				 M462.086,419.855h-0.082l-6.012,11.084h7.311L462.086,419.855z"/>
			<path fill="#00427E" d="M485.356,414.022h9.063c5.398,0.035,11.902,0.177,11.902,7.218c0,4.998-3.904,6.747-8.248,7.262v0.089
				c2.23,0.207,2.965,3.204,3.367,5.035l2.037,8.733h-7.561l-1.459-7.232c-0.732-3.696-0.979-3.976-4.387-3.976h-0.811
				l-2.281,11.208h-7.592L485.356,414.022z M490.358,425.778h2.559c3.287,0,5.844-0.807,5.844-3.478c0-2.042-1.215-2.892-3.49-2.938
				h-3.615L490.358,425.778z"/>
			<path fill="#00427E" d="M516.758,414.022h7.633l-5.889,28.337h-7.635L516.758,414.022z"/>
			<path fill="#00427E" d="M551.208,420.429c-1.469-0.684-3.455-1.313-6.264-1.313c-3.002,0-5.438,0.458-5.438,2.727
				c0,4.016,11.018,2.52,11.018,11.141c0,7.83-7.291,9.861-13.867,9.861c-2.914,0-6.289-0.69-8.77-1.461l1.787-5.77
				c1.504,0.974,4.504,1.625,6.982,1.625c2.355,0,6.057-0.45,6.057-3.369c0-4.554-11.012-2.84-11.012-10.842
				c0-7.311,6.424-9.51,12.637-9.51c3.498,0,6.789,0.37,8.703,1.271L551.208,420.429z"/>
		</g>
		<path fill="#00427E" d="M456.276,358.575l-93.74,0.396c-6.262-17.769-11.105-35.55-14.799-53.047
			c102.059-29.437,73.885-45.247,73.885-45.247h-0.008c44.592-21.498,47.047-32.072,37.744-42.489
			c12.586-7.675,30.045-20.196,39.623-42.627c-48.047,8.309-111.266,34.308-158.26,78.824c-0.625,0.596-1.127,1.208-1.127,1.208
			c0.01-0.118,0.176-0.966,0.09-1.887c-3.688-40.953-3.436-85.634-2.592-114.217c10.287-33.641,26.83-65.15,28.74-84.922
			c0.986-10.348-6.318-14.514-11.951-12.694c-12.076,3.863-20.217,26.469-25.637,99.439c-13.85,33.968-30.639,76.135-44.268,108.62
			c-0.246,0.671-0.451,1.336-0.467,1.641c0,0-0.203-0.673-0.641-1.432c-44.357-76.242-108.893-109.325-127.469-116.488
			c5.26,31.917,14.098,46.568,24.973,58.824c-5.764,2.128-8.887,5.44-9.406,10.332c-1.406,13.507,18.145,33.166,41.42,44.865
			c0,0-21.387,25.654,48.381,54.499c-10.799,23.463-20.605,43.396-29.691,57.928c-161.932,1.913-214.726,4.75-214.968,4.801
			l11.729,15.297c0,0,218.161-14.323,539.563-16.109l3.313-5.672C529.838,358.417,491.739,358.47,456.276,358.575z M339.715,110.154
			c1.922-21.516,7.145-48.937,11.74-61.676c1.666-4.619,5.436-3.059,6.52-1.623c6.387,8.428-10.584,48.791-16.527,62.888
			c-0.738,1.998-1.252,3.47-1.699,5.295C338.93,118.248,339.43,113.294,339.715,110.154z M480.235,187.393
			c-6.334,14.056-33.361,29.523-33.361,29.523c19.512,10.338-11.646,29.777-38.867,42.89c14.775,6.66,10.941,18.385-61.461,40.229
			c-2.244-11.318-4.025-22.529-5.424-33.505C400.393,205.736,471.274,189.757,480.235,187.393z M316.844,189.929l-0.012,0.029
			c1.238-3.204,3.996-10.307,7.549-19.372c1.963-5.324,2.018-6.782,2.738-7.471c-0.238,1.389-0.691,5-0.793,7.516
			c-0.055,1.528-0.119,3.873-0.188,5.479c-1.008,48.272,3.482,92.699,9.326,127.397l0.01,0.023
			c-13.789,4.514-24.982,8.916-34.123,13.233c-7.455-5.681-17.309-11.733-30.322-18.245
			C285.7,265.066,306.622,216.109,316.844,189.929z M225.508,248.194c-16.301-9.183-43.305-33.982-42.156-46.975
			c0.695-7.75,12.127-7.372,12.127-7.372c-7.254-5.744-22.471-22.51-26.139-44.651c53.377,25.476,95.699,88.769,109.057,113.128
			c-4.883,11.404-9.689,22.397-14.393,32.769C199.85,266.488,225.508,248.194,225.508,248.194z M242.393,359.971
			c9.307-18.812,19.76-41.325,25.604-54.555c10.633,5.051,19.068,10.161,25.742,15.177c-25.469,13.658-31.369,26.51-35.256,39.204
			C253.002,359.853,247.655,359.912,242.393,359.971z M270.143,359.682c3.658-14.587,14.154-25.32,29.596-34.209
			c15.605,13.812,18.514,26.333,18.49,33.79C301.36,359.393,285.336,359.53,270.143,359.682z M324.559,359.213
			c-0.123-11.841-1.756-23.707-17.305-37.613l-0.082-0.066c8.65-4.286,18.531-8.163,29.363-11.89
			c3.732,20.853,7.896,37.79,11.475,49.41C340.024,359.105,332.206,359.161,324.559,359.213z"/>
		<path fill="#F5821F" d="M393.459,143.435c-19.779,0.2-33.93,7.675-33.93,7.675l3.16,1.552c10.162-4.917,19.723-5.181,30.145-5.405
			c-10.666,7.927-19.756,16.55-31.58,28.885l1.223,1.253c0,0,4.121-0.461,5.125-1.253c0.328-0.26,17.914-17.74,26.385-24.422
			l0.01,0.297c-2.355,14.353-3.709,30.811-2.852,36.395l4.635-4.028c0.016-0.153,2.209-15.173,5.16-31.992
			c4.426,5.588,10.604,14.705,13.563,23.412c0.311,0.824,0.443-0.248,4.109-1.521c2.287-0.792,3.258-1.239,2.955-2.219
			c-3.064-8.934-8.645-16.858-14.07-23.587c6.107,1.181,12.361,2.836,18.266,4.903c2.193,0.777,4.92-1.878,5.988-1.843
			c0,0,0,0-0.006-0.006l0.596-1.641c-9.004-3.231-18.24-5.237-27.543-6.052l-0.029-0.033c11.504-8.106,25.535-15.19,30.492-17.372
			c1.852-0.807,1.604-2.337-0.322-2.116c-4.164,0.497-19.795,7.809-32.014,15.973c2.635-15.068,6.926-27.314,7.473-28.82
			l0.023-1.429l-7.855,1.662c0,0-2.865,10.938-5.568,24.364c-6.127-7.081-12.484-13.877-18.93-20.303c0,0-1.744,0.638-3.254,1.061
			c-1.365,0.37-3.98,2.089-3.98,2.089C377.682,125.467,391.834,141.464,393.459,143.435z"/>
	</g>
</g>
</svg>
